<svg height="512pt" viewBox="0 0 512.00001 512" width="512pt" xmlns="http://www.w3.org/2000/svg"><path d="m512 256c0 82.972656-39.476562 156.730469-100.675781 203.511719-17.136719 13.101562-35.976563 24.074219-56.121094 32.546875-30.511719 12.84375-64.03125 19.9375-99.203125 19.9375-141.382812 0-255.99609375-114.613282-255.99609375-255.996094 0-141.386719 114.61328175-256 255.99609375-256 121.144531 0 222.625 84.144531 249.207031 197.171875 4.441407 18.890625 6.792969 38.585937 6.792969 58.828125zm0 0" fill="#383a4c"/><path d="m129.90625 215.324219s-17.460938-2.855469-39.574219-9.171875c-42.527343-12.117188-102.261719-37.042969-88.25-79.078125 2.734375-8.195313 7.480469-15.234375 13.667969-21.265625 26.257812-25.617188 78.574219-33.207032 114.132812-35.308594 21.382813-1.253906 36.710938-.53125 36.710938-.53125l-29.402344 116.472656zm0 0" fill="#c9700e"/><path d="m57.636719 160.722656c-25.683594-12.941406-45.996094-30.941406-41.886719-54.914062 26.257812-25.617188 78.574219-33.207032 114.132812-35.308594-8.246093 22.300781-15.644531 45.203125-22.347656 68.601562-6.097656 21.285157-30.125 31.585938-49.898437 21.621094zm0 0" fill="#ea9228"/><path d="m367.789062 323.898438c-13.480468 11.984374-27.359374 23.761718-41.542968 35.394531-15.652344 12.835937-38.328125 12.421875-53.414063-1.089844-47.171875-42.238281-99.257812-81.882813-152.53125-116.101563-17.03125-10.945312-23.476562-32.695312-15.273437-51.207031 22.144531-49.980469 46.378906-97.644531 74.222656-141.566406 7.824219-12.339844 21.257812-19.097656 35.027344-18.949219 6.269531.054688 12.605468 1.550782 18.503906 4.585938 80.03125 41.203125 148.734375 93.496094 209.753906 159.667968 14.414063 15.628907 14.6875 39.660157.414063 55.414063-23.207031 25.621094-48.429688 50.125-75.160157 73.851563zm0 0" fill="#c9700e"/><path d="m182.65625 199.492188c-3.171875 4.878906-9.691406 6.238281-14.589844 3.101562-.027344-.019531-.058594-.039062-.089844-.058594-17.039062-10.9375-23.46875-32.6875-15.277343-51.195312 18.726562-42.269532 38.941406-82.863282 61.578125-120.960938 6.265625.054688 12.601562 1.550782 18.503906 4.585938 17.617188 9.070312 34.679688 18.675781 51.242188 28.839844-2.367188 1.976562-4.601563 4.179687-6.65625 6.625-33.722657 40.058593-65.015626 83.398437-94.710938 129.0625zm0 0" fill="#ea9228"/><path d="m512 256c0 82.972656-39.476562 156.730469-100.675781 203.511719-17.136719 13.101562-35.976563 24.074219-56.121094 32.546875-52.054687-60.652344-110.445313-118.863282-171.195313-170.640625-19.832031-16.90625-24.292968-45.753907-10.625-67.957031 9.320313-15.152344 18.785157-30.085938 28.421876-44.765626 28.511718-43.457031 58.53125-84.761718 90.777343-123.054687 17.640625-20.941406 48.347657-24.734375 70.78125-9.058594 51.953125 36.320313 99.003907 76.285157 141.84375 120.589844 4.441407 18.890625 6.792969 38.585937 6.792969 58.828125zm0 0" fill="#c9700e"/><path d="m512 256c0 82.972656-39.476562 156.730469-100.675781 203.511719-.105469-.113281-.207031-.230469-.3125-.355469-58.042969-67.207031-122.972657-132.148438-190.191407-190.179688-18.085937-15.632812-25.160156-39.621093-19.015624-60.28125 28.511718-43.457031 58.53125-84.761718 90.777343-123.054687 17.640625-20.941406 48.347657-24.734375 70.78125-9.058594 51.953125 36.320313 99.003907 76.285157 141.84375 120.589844 4.441407 18.890625 6.792969 38.585937 6.792969 58.828125zm0 0" fill="#ea9228"/><g fill="#c9700e"><path d="m253.675781 273.96875c0 8.742188-7.089843 15.828125-15.832031 15.828125s-15.828125-7.085937-15.828125-15.828125 7.085937-15.828125 15.828125-15.828125 15.832031 7.085937 15.832031 15.828125zm0 0"/><path d="m203.121094 178.484375c0 8.742187-7.085938 15.828125-15.828125 15.828125-8.742188 0-15.828125-7.085938-15.828125-15.828125s7.085937-15.832031 15.828125-15.832031c8.742187 0 15.828125 7.089844 15.828125 15.832031zm0 0"/><path d="m290.183594 275.757812c0 6.625-5.371094 11.996094-12 11.996094-6.625 0-12-5.371094-12-11.996094 0-6.628906 5.375-12 12-12 6.628906 0 12 5.371094 12 12zm0 0"/><path d="m53.253906 114.144531c0 6.625-5.371094 12-12 12-6.625 0-11.996094-5.375-11.996094-12 0-6.628906 5.371094-12 11.996094-12 6.628906 0 12 5.371094 12 12zm0 0"/><path d="m271.902344 236.640625c0 6.628906-5.371094 12-12 12s-12-5.371094-12-12c0-6.625 5.371094-12 12-12s12 5.375 12 12zm0 0"/><path d="m197.25 133.546875c0 6.628906-5.371094 12-12 12-6.625 0-12-5.371094-12-12 0-6.625 5.375-12 12-12 6.628906 0 12 5.375 12 12zm0 0"/><path d="m498.558594 227.710938c0 6.625-5.371094 12-12 12-6.625 0-12-5.375-12-12 0-6.628907 5.375-12 12-12 6.628906 0 12 5.371093 12 12zm0 0"/><path d="m466.859375 241.035156c0 6.625-5.371094 12-12 12-6.625 0-11.996094-5.375-11.996094-12 0-6.628906 5.371094-12 11.996094-12 6.628906 0 12 5.371094 12 12zm0 0"/><path d="m58.363281 149.886719c0 6.628906-5.375 12-12 12-6.628906 0-12-5.371094-12-12 0-6.625 5.371094-12 12-12 6.625 0 12 5.375 12 12zm0 0"/><path d="m474.871094 198.398438c0 9.898437-8.023438 17.921874-17.917969 17.921874-9.898437 0-17.921875-8.023437-17.921875-17.921874 0-9.894532 8.023438-17.917969 17.921875-17.917969 9.894531 0 17.917969 8.023437 17.917969 17.917969zm0 0"/></g></svg>